<svg viewBox="0 0 50 50" width="100%" height="100%">
  <path d="M 24.6875 0 C 20.625 0 17.777344 2.820313 16.15625 6.4375 C 14.535156 10.054688 13.921875 14.566406 14 18.59375 C 14.089844 23.140625 15.90625 28.3125 15.90625 28.3125 C 16.003906 28.578125 16.207031 28.792969 16.46875 28.898438 C 16.730469 29.007813 17.027344 28.996094 17.28125 28.875 C 18.964844 28.109375 22.15625 27.28125 24.25 27.125 C 25.183594 27.054688 26.953125 27.242188 28.40625 27.46875 C 29.859375 27.695313 31.03125 27.9375 31.03125 27.9375 C 31.5 28.035156 31.972656 27.785156 32.15625 27.34375 C 32.15625 27.34375 34.5 21.886719 34.9375 16.03125 C 35.105469 13.777344 34.789063 9.957031 33.34375 6.53125 C 32.621094 4.816406 31.613281 3.214844 30.1875 2 C 28.761719 0.785156 26.910156 0 24.6875 0 Z M 24.6875 2 C 26.457031 2 27.765625 2.585938 28.875 3.53125 C 29.984375 4.476563 30.863281 5.800781 31.5 7.3125 C 32.773438 10.332031 33.109375 14.007813 32.96875 15.875 C 32.609375 20.671875 30.964844 24.816406 30.5625 25.8125 C 30.097656 25.71875 29.714844 25.660156 28.6875 25.5 C 27.179688 25.265625 25.425781 25.027344 24.09375 25.125 C 22.015625 25.277344 19.507813 25.9375 17.53125 26.6875 C 17.144531 25.464844 16.066406 21.921875 16 18.53125 C 15.925781 14.742188 16.527344 10.460938 17.96875 7.25 C 19.410156 4.039063 21.523438 2 24.6875 2 Z M 32.34375 35.25 C 32.28125 35.253906 32.21875 35.265625 32.15625 35.28125 C 32.136719 35.289063 32.113281 35.300781 32.09375 35.3125 C 31.285156 35.519531 29.226563 36.210938 25.875 36.5 C 22.078125 36.832031 18.1875 36.375 18.1875 36.375 C 17.902344 36.339844 17.613281 36.429688 17.398438 36.621094 C 17.183594 36.8125 17.058594 37.085938 17.0625 37.375 C 17.039063 40.265625 17.5 43.351563 19.03125 45.8125 C 20.5625 48.273438 23.253906 50 27.1875 50 C 29.734375 50 31.933594 48.359375 33.0625 45.84375 C 34.191406 43.328125 34.367188 39.921875 33.3125 36 C 33.199219 35.558594 32.800781 35.25 32.34375 35.25 Z M 31.53125 37.53125 C 32.175781 40.621094 32.011719 43.261719 31.21875 45.03125 C 30.335938 47.003906 28.921875 48 27.1875 48 C 23.808594 48 21.941406 46.710938 20.71875 44.75 C 19.664063 43.054688 19.253906 40.773438 19.15625 38.46875 C 20.453125 38.582031 22.945313 38.769531 26.03125 38.5 C 28.703125 38.269531 30.445313 37.828125 31.53125 37.53125 Z"/>
</svg>
