<svg width="100%" height="100%" viewBox="0 0 1159 453" xmlns="http://www.w3.org/2000/svg">
<path opacity="0.37" d="M131.529 176.634C131.529 167.531 128.316 160.569 121.89 155.75C115.464 150.824 103.898 145.683 87.1908 140.328C70.4838 134.866 57.2574 129.511 47.5116 124.264C20.9517 109.913 7.67175 90.5819 7.67175 66.271C7.67175 53.6336 11.2059 42.3885 18.2743 32.5356C25.4497 22.5757 35.6774 14.8112 48.9574 9.24219C62.3444 3.67318 77.3379 0.888672 93.9379 0.888672C110.645 0.888672 125.531 3.94092 138.597 10.0454C151.663 16.0428 161.783 24.557 168.959 35.5879C176.241 46.6188 179.883 59.1491 179.883 73.1787H131.689C131.689 62.4691 128.316 54.1691 121.569 48.2788C114.822 42.2814 105.344 39.2827 93.1346 39.2827C81.354 39.2827 72.1973 41.7995 65.6644 46.833C59.1316 51.7594 55.8651 58.2923 55.8651 66.4316C55.8651 74.0355 59.667 80.4077 67.2709 85.5483C74.9818 90.689 86.2805 95.5083 101.167 100.006C128.584 108.253 148.557 118.48 161.087 130.689C173.618 142.898 179.883 158.106 179.883 176.312C179.883 196.554 172.225 212.458 156.911 224.024C141.596 235.483 120.98 241.213 95.0624 241.213C77.0702 241.213 60.6844 237.946 45.9052 231.414C31.1259 224.774 19.8272 215.724 12.0092 204.265C4.29822 192.805 0.442749 179.525 0.442749 164.425H48.7968C48.7968 190.235 64.2186 203.14 95.0624 203.14C106.522 203.14 115.464 200.838 121.89 196.232C128.316 191.52 131.529 184.987 131.529 176.634ZM385.045 126.352C385.045 149.378 380.975 169.565 372.836 186.915C364.697 204.265 353.023 217.652 337.816 227.076C322.715 236.501 305.365 241.213 285.767 241.213C266.382 241.213 249.086 236.554 233.879 227.237C218.671 217.919 206.89 204.639 198.537 187.397C190.183 170.047 185.953 150.127 185.846 127.637V116.071C185.846 93.0451 189.969 72.8039 198.215 55.3472C206.569 37.7834 218.296 24.3428 233.397 15.0254C248.604 5.60091 265.954 0.888672 285.445 0.888672C304.937 0.888672 322.233 5.60091 337.334 15.0254C352.541 24.3428 364.268 37.7834 372.515 55.3472C380.868 72.8039 385.045 92.9915 385.045 115.91V126.352ZM336.209 115.75C336.209 91.2244 331.818 72.5897 323.036 59.8452C314.254 47.1007 301.724 40.7285 285.445 40.7285C269.274 40.7285 256.797 47.0472 248.015 59.6846C239.233 72.2148 234.789 90.6354 234.682 114.946V126.352C234.682 150.235 239.073 168.762 247.855 181.935C256.637 195.108 269.274 201.694 285.767 201.694C301.938 201.694 314.361 195.376 323.036 182.738C331.711 169.994 336.102 151.466 336.209 127.155V115.75ZM583.942 160.087C582.122 185.255 572.804 205.068 555.99 219.526C539.283 233.984 517.221 241.213 489.805 241.213C459.818 241.213 436.203 231.146 418.96 211.012C401.825 190.771 393.257 163.033 393.257 127.798V113.5C393.257 91.0103 397.22 71.1974 405.145 54.062C413.07 36.9266 424.369 23.8073 439.041 14.7041C453.82 5.49382 470.956 0.888672 490.447 0.888672C517.435 0.888672 539.176 8.11768 555.669 22.5757C572.162 37.0337 581.693 57.3285 584.264 83.46H536.07C534.892 68.3594 530.662 57.4355 523.379 50.6885C516.204 43.8343 505.226 40.4072 490.447 40.4072C474.383 40.4072 462.334 46.1904 454.302 57.7568C446.377 69.2161 442.307 87.0477 442.093 111.251V128.922C442.093 154.197 445.895 172.671 453.499 184.345C461.21 196.018 473.312 201.855 489.805 201.855C504.691 201.855 515.775 198.481 523.058 191.734C530.448 184.88 534.678 174.331 535.749 160.087H583.942ZM669.103 144.184L644.043 171.172V238H595.849V4.10156H644.043V110.127L665.248 81.0503L724.847 4.10156H784.125L701.071 108.039L786.534 238H729.184L669.103 144.184ZM906.234 176.634C906.234 167.531 903.021 160.569 896.595 155.75C890.169 150.824 878.603 145.683 861.896 140.328C845.189 134.866 831.962 129.511 822.217 124.264C795.657 109.913 782.377 90.5819 782.377 66.271C782.377 53.6336 785.911 42.3885 792.979 32.5356C800.155 22.5757 810.382 14.8112 823.662 9.24219C837.049 3.67318 852.043 0.888672 868.643 0.888672C885.35 0.888672 900.236 3.94092 913.302 10.0454C926.368 16.0428 936.488 24.557 943.664 35.5879C950.946 46.6188 954.588 59.1491 954.588 73.1787H906.394C906.394 62.4691 903.021 54.1691 896.274 48.2788C889.527 42.2814 880.049 39.2827 867.84 39.2827C856.059 39.2827 846.902 41.7995 840.369 46.833C833.837 51.7594 830.57 58.2923 830.57 66.4316C830.57 74.0355 834.372 80.4077 841.976 85.5483C849.687 90.689 860.985 95.5083 875.872 100.006C903.289 108.253 923.262 118.48 935.792 130.689C948.323 142.898 954.588 158.106 954.588 176.312C954.588 196.554 946.93 212.458 931.616 224.024C916.301 235.483 895.685 241.213 869.767 241.213C851.775 241.213 835.389 237.946 820.61 231.414C805.831 224.774 794.532 215.724 786.714 204.265C779.003 192.805 775.148 179.525 775.148 164.425H823.502C823.502 190.235 838.924 203.14 869.767 203.14C881.227 203.14 890.169 200.838 896.595 196.232C903.021 191.52 906.234 184.987 906.234 176.634ZM958.141 175.027C958.141 164.211 961.14 154.197 967.137 144.987C973.242 135.777 984.38 125.549 1000.55 114.304C993.59 104.986 988.128 96.258 984.166 88.1187C980.203 79.8722 978.222 71.3045 978.222 62.4155C978.222 44.2091 983.951 29.4299 995.411 18.0776C1006.98 6.61833 1022.51 0.888672 1042 0.888672C1059.45 0.888672 1073.75 6.08285 1084.89 16.4712C1096.13 26.8595 1101.76 39.8182 1101.76 55.3472C1101.76 73.9819 1092.33 90.4212 1073.48 104.665L1055.49 117.677L1095.81 164.585C1102.13 152.162 1105.29 138.454 1105.29 123.46H1144.81C1144.81 153.876 1137.8 178.508 1123.77 197.357L1158.79 238H1106.09L1094.05 224.185C1076.8 235.537 1056.99 241.213 1034.61 241.213C1011.48 241.213 992.947 235.162 979.025 223.06C965.102 210.851 958.141 194.84 958.141 175.027ZM1036.86 203.943C1047.99 203.943 1058.54 200.838 1068.5 194.626L1022.4 141.292L1019.03 143.702C1009.49 151.841 1004.73 161.426 1004.73 172.457C1004.73 181.774 1007.67 189.378 1013.56 195.269C1019.56 201.052 1027.33 203.943 1036.86 203.943ZM1019.83 61.7729C1019.83 69.8052 1024.54 79.9258 1033.97 92.1348L1046.33 83.9419C1052.65 79.8722 1056.99 75.9097 1059.35 72.0542C1061.81 68.1987 1063.04 63.5936 1063.04 58.2388C1063.04 52.884 1061.06 48.2253 1057.1 44.2627C1053.14 40.3001 1048.05 38.3188 1041.84 38.3188C1035.2 38.3188 1029.84 40.4608 1025.77 44.7446C1021.81 49.0285 1019.83 54.7046 1019.83 61.7729ZM232.825 387.634C232.825 378.531 229.612 371.569 223.186 366.75C216.76 361.824 205.194 356.683 188.487 351.328C171.78 345.866 158.553 340.511 148.808 335.264C122.248 320.913 108.968 301.582 108.968 277.271C108.968 264.634 112.502 253.389 119.57 243.536C126.746 233.576 136.974 225.811 150.253 220.242C163.64 214.673 178.634 211.889 195.234 211.889C211.941 211.889 226.827 214.941 239.893 221.045C252.959 227.043 263.079 235.557 270.255 246.588C277.537 257.619 281.179 270.149 281.179 284.179H232.985C232.985 273.469 229.612 265.169 222.865 259.279C216.118 253.281 206.64 250.283 194.431 250.283C182.65 250.283 173.493 252.799 166.96 257.833C160.428 262.759 157.161 269.292 157.161 277.432C157.161 285.035 160.963 291.408 168.567 296.548C176.278 301.689 187.577 306.508 202.463 311.006C229.88 319.253 249.853 329.48 262.383 341.689C274.914 353.898 281.179 369.106 281.179 387.312C281.179 407.554 273.521 423.458 258.207 435.024C242.892 446.483 222.276 452.213 196.358 452.213C178.366 452.213 161.98 448.946 147.201 442.414C132.422 435.774 121.123 426.724 113.305 415.265C105.594 403.805 101.739 390.525 101.739 375.425H150.093C150.093 401.235 165.515 414.14 196.358 414.14C207.818 414.14 216.76 411.838 223.186 407.232C229.612 402.52 232.825 395.987 232.825 387.634ZM484.574 449H436.381V348.758H342.404V449H294.21V215.102H342.404V309.882H436.381V215.102H484.574V449ZM699.214 337.352C699.214 360.378 695.145 380.565 687.005 397.915C678.866 415.265 667.193 428.652 651.985 438.076C636.884 447.501 619.535 452.213 599.936 452.213C580.552 452.213 563.256 447.554 548.048 438.237C532.84 428.919 521.06 415.639 512.706 398.397C504.353 381.047 500.122 361.127 500.015 338.637V327.071C500.015 304.045 504.138 283.804 512.385 266.347C520.738 248.783 532.465 235.343 547.566 226.025C562.774 216.601 580.123 211.889 599.615 211.889C619.106 211.889 636.402 216.601 651.503 226.025C666.711 235.343 678.438 248.783 686.684 266.347C695.038 283.804 699.214 303.992 699.214 326.91V337.352ZM650.378 326.75C650.378 302.224 645.987 283.59 637.206 270.845C628.424 258.101 615.893 251.729 599.615 251.729C583.443 251.729 570.966 258.047 562.185 270.685C553.403 283.215 548.958 301.635 548.851 325.946V337.352C548.851 361.235 553.242 379.762 562.024 392.935C570.806 406.108 583.443 412.694 599.936 412.694C616.108 412.694 628.531 406.376 637.206 393.738C645.88 380.994 650.271 362.466 650.378 338.155V326.75ZM855.219 347.633H762.688V410.285H871.284V449H714.495V215.102H870.963V254.138H762.688V309.882H855.219V347.633ZM1001.1 387.634C1001.1 378.531 997.891 371.569 991.465 366.75C985.04 361.824 973.473 356.683 956.766 351.328C940.059 345.866 926.833 340.511 917.087 335.264C890.527 320.913 877.247 301.582 877.247 277.271C877.247 264.634 880.781 253.389 887.85 243.536C895.025 233.576 905.253 225.811 918.533 220.242C931.92 214.673 946.913 211.889 963.513 211.889C980.22 211.889 995.107 214.941 1008.17 221.045C1021.24 227.043 1031.36 235.557 1038.53 246.588C1045.82 257.619 1049.46 270.149 1049.46 284.179H1001.26C1001.26 273.469 997.891 265.169 991.144 259.279C984.397 253.281 974.919 250.283 962.71 250.283C950.929 250.283 941.773 252.799 935.24 257.833C928.707 262.759 925.44 269.292 925.44 277.432C925.44 285.035 929.242 291.408 936.846 296.548C944.557 301.689 955.856 306.508 970.742 311.006C998.159 319.253 1018.13 329.48 1030.66 341.689C1043.19 353.898 1049.46 369.106 1049.46 387.312C1049.46 407.554 1041.8 423.458 1026.49 435.024C1011.17 446.483 990.555 452.213 964.638 452.213C946.646 452.213 930.26 448.946 915.48 442.414C900.701 435.774 889.403 426.724 881.584 415.265C873.874 403.805 870.018 390.525 870.018 375.425H918.372C918.372 401.235 933.794 414.14 964.638 414.14C976.097 414.14 985.04 411.838 991.465 407.232C997.891 402.52 1001.1 395.987 1001.1 387.634Z" fill="#E77C7C"/>
</svg>
